<svg xmlns="http://www.w3.org/2000/svg" viewBox="0 0 32 32">
  <rect width="32" height="32" rx="7" fill="#1E3A25"/>

  <defs>
    <clipPath id="b">
      <path d="M7.5 14 C7.5 22 10.5 27.5 16 27.5 C21.5 27.5 24.5 22 24.5 14 Z"/>
    </clipPath>
  </defs>

  <!-- Basket body — warm bowl form -->
  <path d="M7.5 14 C7.5 22 10.5 27.5 16 27.5 C21.5 27.5 24.5 22 24.5 14 Z" fill="#C9A56B"/>

  <!-- Woven horizontal bands -->
  <g clip-path="url(#b)">
    <rect x="6" y="17" width="20" height="1.8" fill="#A8874A" opacity="0.3"/>
    <rect x="6" y="21.5" width="20" height="1.8" fill="#A8874A" opacity="0.3"/>
    <rect x="6" y="25.5" width="20" height="1.5" fill="#A8874A" opacity="0.25"/>
  </g>

  <!-- Basket outline -->
  <path d="M7.5 14 C7.5 22 10.5 27.5 16 27.5 C21.5 27.5 24.5 22 24.5 14" fill="none" stroke="#96793F" stroke-width="0.8"/>

  <!-- Rim — substantial, rounded lip -->
  <rect x="6" y="11.5" width="20" height="3.5" rx="1.75" fill="#D4B279" stroke="#96793F" stroke-width="0.7"/>

  <!-- Fabric cloth — warm cream, draped gently -->
  <path d="M13 12 C12.5 8.5 14.5 5.5 17.5 5 C19.5 4.7 20.5 6.5 20 9 L19 13" fill="#F2EDE4" stroke="#D5CFC3" stroke-width="0.6"/>
  <!-- Fabric fold hint -->
  <path d="M16 7 C16.3 8 16.2 10 15.8 12.5" stroke="#D5CFC3" stroke-width="0.4" fill="none" opacity="0.6"/>
</svg>
